<svg width="280" height="451" viewBox="0 0 280 451" fill="none" xmlns="http://www.w3.org/2000/svg">
<path fill-rule="evenodd" clip-rule="evenodd" d="M157.125 43.4946C190.92 70.7257 190.983 121.784 210.613 160.485C228.291 195.338 282.375 226.204 279.321 265.156C276.278 303.958 212.993 308.536 200.417 352.858C187.113 399.745 145.517 428.97 117.617 428.97C66.7358 428.97 31.7423 418.979 -2.25772 445.281C-5.99805 448.175 -10.4511 450.237 -15.1792 450.145C-49.9263 449.465 -43.0178 424.92 -74.8292 399.747C-111.997 370.334 -168.533 364.32 -190.736 322.451C-213.872 278.822 -211.673 222.949 -192.769 177.342C-174.425 133.087 -127.717 110.71 -90.477 80.5686C-53.8087 50.8896 -22.8573 9.03309 23.8069 2.04602C70.777 -4.98687 120.139 13.692 157.125 43.4946Z" fill="#95CCFF"/>
</svg>
