<svg width="707" height="556" viewBox="0 0 707 556" fill="none" xmlns="http://www.w3.org/2000/svg">
<rect x="6.76709" y="379.901" width="702" height="138.857" rx="30" transform="rotate(3.18639 6.76709 379.901)" fill="#21E6BE"/>
<g filter="url(#filter0_d_0_1)">
<path d="M218.4 38.15C241.2 38.15 257.1 55.85 257.1 79.55C257.1 103.1 240.6 120.95 217.8 120.95C207.6 120.95 199.35 117.2 193.5 110.75V119H172.95V9.35H195.15V46.85C201 41.3 208.95 38.15 218.4 38.15ZM214.8 101.3C226.5 101.3 235.05 92.15 235.05 79.55C235.05 66.95 226.5 57.65 214.8 57.65C202.5 57.65 194.25 66.65 194.25 79.55C194.25 92.45 202.5 101.3 214.8 101.3ZM290.337 47.6C295.737 41.9 303.687 38 312.987 38V58.85C299.487 58.85 291.537 65 291.537 75.5V119H269.337V39.95H290.337V47.6ZM334.493 28.4C326.393 28.4 319.943 22.55 319.943 14.3C319.943 6.19999 326.393 0.199992 334.493 0.199992C342.593 0.199992 348.893 6.19999 348.893 14.3C348.893 22.55 342.593 28.4 334.493 28.4ZM323.243 119V39.95H345.443V119H323.243ZM406.179 38C425.079 38 437.079 50.75 437.079 69.2V119H415.029V73.55C415.029 63.5 408.429 57.8 399.429 57.8C390.579 57.8 383.679 64.1 383.529 72.2V119H361.329V39.95H382.329V47.3C387.729 41.75 395.979 38 406.179 38ZM512.296 39.95H532.846V107C532.846 131.15 516.946 147.8 489.496 147.8C467.446 147.8 454.996 138.35 449.746 124.55L468.646 117.2C471.946 125.45 479.746 129.2 489.646 129.2C503.896 129.2 512.296 121.25 512.296 109.1V105.8C506.596 112.4 498.346 116.3 487.846 116.3C465.046 116.3 448.696 99.05 448.696 77.45C448.696 55.85 465.196 38.15 487.846 38.15C498.346 38.15 506.596 42.05 512.296 48.65V39.95ZM490.696 99.35C502.696 99.35 510.946 90.35 510.946 78.5C510.946 66.5 502.696 57.65 490.846 57.65C479.296 57.65 470.746 66.8 470.746 78.5C470.746 90.2 479.296 99.35 490.696 99.35Z" fill="black"/>
</g>
<g filter="url(#filter1_d_0_1)">
<path d="M81.85 479C62.2 479 52.15 467.3 52.15 449.45V418.85H38.65V399.95H45.4C50.8 399.95 53.5 397.1 53.5 391.4V379.1H75.1V399.95H94.3V418.85H74.35V446.75C74.35 455.15 78.7 459.65 86.5 459.65H94.9V479H81.85ZM142.837 480.95C117.787 480.95 100.087 463.1 100.087 439.55C100.087 415.85 117.787 398.15 142.837 398.15C167.737 398.15 185.587 415.85 185.587 439.55C185.587 463.1 167.737 480.95 142.837 480.95ZM142.987 461.15C154.987 461.15 163.387 452.15 163.387 439.4C163.387 426.8 155.287 417.95 142.987 417.95C130.687 417.95 122.437 426.8 122.437 439.55C122.437 452.15 130.687 461.15 142.987 461.15ZM257.733 399.95H278.283V467C278.283 491.15 262.383 507.8 234.933 507.8C212.883 507.8 200.433 498.35 195.183 484.55L214.083 477.2C217.383 485.45 225.183 489.2 235.083 489.2C249.333 489.2 257.733 481.25 257.733 469.1V465.8C252.033 472.4 243.783 476.3 233.283 476.3C210.483 476.3 194.133 459.05 194.133 437.45C194.133 415.85 210.633 398.15 233.283 398.15C243.783 398.15 252.033 402.05 257.733 408.65V399.95ZM236.133 459.35C248.133 459.35 256.383 450.35 256.383 438.5C256.383 426.5 248.133 417.65 236.283 417.65C224.733 417.65 216.183 426.8 216.183 438.5C216.183 450.2 224.733 459.35 236.133 459.35ZM311.673 446.3C314.223 456.65 322.323 462.5 332.823 462.5C342.573 462.5 347.523 459.05 350.973 452.75L367.923 464C361.773 473 351.573 480.95 332.223 480.95C306.573 480.95 289.923 463.1 289.923 439.55C289.923 416.6 308.073 398.15 330.723 398.15C356.223 398.15 371.373 418.1 371.373 437.9C371.373 441.35 371.223 444.35 370.923 446.3H311.673ZM311.373 431.75H350.523C348.423 421.4 341.523 414.95 331.323 414.95C321.123 414.95 313.623 420.95 311.373 431.75ZM418.471 479C398.821 479 388.771 467.3 388.771 449.45V418.85H375.271V399.95H382.021C387.421 399.95 390.121 397.1 390.121 391.4V379.1H411.721V399.95H430.921V418.85H410.971V446.75C410.971 455.15 415.321 459.65 423.121 459.65H431.521V479H418.471ZM486.919 398C505.819 398 517.819 410.75 517.819 429.2V479H495.769V433.55C495.769 423.5 489.169 417.8 480.169 417.8C471.319 417.8 464.419 424.1 464.269 432.2V479H442.069V369.35H464.269V406.1C469.669 401.3 477.469 398 486.919 398ZM550.736 446.3C553.286 456.65 561.386 462.5 571.886 462.5C581.636 462.5 586.586 459.05 590.036 452.75L606.986 464C600.836 473 590.636 480.95 571.286 480.95C545.636 480.95 528.986 463.1 528.986 439.55C528.986 416.6 547.136 398.15 569.786 398.15C595.286 398.15 610.436 418.1 610.436 437.9C610.436 441.35 610.286 444.35 609.986 446.3H550.736ZM550.436 431.75H589.586C587.486 421.4 580.586 414.95 570.386 414.95C560.186 414.95 552.686 420.95 550.436 431.75ZM643.098 407.6C648.498 401.9 656.448 398 665.748 398V418.85C652.248 418.85 644.298 425 644.298 435.5V479H622.098V399.95H643.098V407.6Z" fill="black"/>
</g>
<g filter="url(#filter2_d_0_1)">
<path d="M167.95 219.95H188.5V299H167.95V290.3C162.25 297.05 154 300.95 143.65 300.95C120.85 300.95 104.35 283.1 104.35 259.55C104.35 235.85 120.85 219.5 143.65 219.5C154 219.5 162.25 223.1 167.95 229.55V219.95ZM146.8 281.3C158.95 281.3 167.2 272.45 167.2 259.55C167.2 246.65 158.95 237.65 146.8 237.65C134.95 237.65 126.4 246.95 126.4 259.55C126.4 272.15 134.95 281.3 146.8 281.3ZM267.457 299C247.807 299 237.757 287.3 237.757 269.45V238.85H224.257V219.95H231.007C236.407 219.95 239.107 217.1 239.107 211.4V199.1H260.707V219.95H279.907V238.85H259.957V266.75C259.957 275.15 264.307 279.65 272.107 279.65H280.507V299H267.457ZM307.144 266.3C309.694 276.65 317.794 282.5 328.294 282.5C338.044 282.5 342.994 279.05 346.444 272.75L363.394 284C357.244 293 347.044 300.95 327.694 300.95C302.044 300.95 285.394 283.1 285.394 259.55C285.394 236.6 303.544 218.15 326.194 218.15C351.694 218.15 366.844 238.1 366.844 257.9C366.844 261.35 366.694 264.35 366.394 266.3H307.144ZM306.844 251.75H345.994C343.894 241.4 336.994 234.95 326.794 234.95C316.594 234.95 309.094 240.95 306.844 251.75ZM438.507 219.95H459.057V299H438.507V290.3C432.807 297.05 424.557 300.95 414.207 300.95C391.407 300.95 374.907 283.1 374.907 259.55C374.907 235.85 391.407 219.5 414.207 219.5C424.557 219.5 432.807 223.1 438.507 229.55V219.95ZM417.357 281.3C429.507 281.3 437.757 272.45 437.757 259.55C437.757 246.65 429.507 237.65 417.357 237.65C405.507 237.65 396.957 246.95 396.957 259.55C396.957 272.15 405.507 281.3 417.357 281.3ZM568.643 218C588.443 218 598.793 232.25 598.793 249.8V298.85H576.593V254C576.593 245.15 571.943 237.8 562.643 237.8C552.743 237.8 548.093 245.3 547.943 251.9V298.85H525.743V254C525.743 245.15 520.943 237.8 511.643 237.8C502.043 237.8 497.243 245.3 497.093 251.9V298.85H474.893V219.95H495.893V227.45C500.843 221.9 508.793 218 518.693 218C530.693 218 538.343 222.2 542.693 229.55C547.343 222.8 556.043 218 568.643 218Z" fill="black"/>
</g>
<line x1="265" y1="323" x2="564" y2="323" stroke="black" stroke-width="10"/>
<defs>
<filter id="filter0_d_0_1" x="168.95" y="0.200012" width="367.896" height="155.6" filterUnits="userSpaceOnUse" color-interpolation-filters="sRGB">
<feFlood flood-opacity="0" result="BackgroundImageFix"/>
<feColorMatrix in="SourceAlpha" type="matrix" values="0 0 0 0 0 0 0 0 0 0 0 0 0 0 0 0 0 0 127 0" result="hardAlpha"/>
<feOffset dy="4"/>
<feGaussianBlur stdDeviation="2"/>
<feComposite in2="hardAlpha" operator="out"/>
<feColorMatrix type="matrix" values="0 0 0 0 0 0 0 0 0 0 0 0 0 0 0 0 0 0 0.25 0"/>
<feBlend mode="normal" in2="BackgroundImageFix" result="effect1_dropShadow_0_1"/>
<feBlend mode="normal" in="SourceGraphic" in2="effect1_dropShadow_0_1" result="shape"/>
</filter>
<filter id="filter1_d_0_1" x="34.6499" y="369.35" width="635.099" height="146.45" filterUnits="userSpaceOnUse" color-interpolation-filters="sRGB">
<feFlood flood-opacity="0" result="BackgroundImageFix"/>
<feColorMatrix in="SourceAlpha" type="matrix" values="0 0 0 0 0 0 0 0 0 0 0 0 0 0 0 0 0 0 127 0" result="hardAlpha"/>
<feOffset dy="4"/>
<feGaussianBlur stdDeviation="2"/>
<feComposite in2="hardAlpha" operator="out"/>
<feColorMatrix type="matrix" values="0 0 0 0 0 0 0 0 0 0 0 0 0 0 0 0 0 0 0.25 0"/>
<feBlend mode="normal" in2="BackgroundImageFix" result="effect1_dropShadow_0_1"/>
<feBlend mode="normal" in="SourceGraphic" in2="effect1_dropShadow_0_1" result="shape"/>
</filter>
<filter id="filter2_d_0_1" x="100.35" y="199.1" width="502.443" height="109.85" filterUnits="userSpaceOnUse" color-interpolation-filters="sRGB">
<feFlood flood-opacity="0" result="BackgroundImageFix"/>
<feColorMatrix in="SourceAlpha" type="matrix" values="0 0 0 0 0 0 0 0 0 0 0 0 0 0 0 0 0 0 127 0" result="hardAlpha"/>
<feOffset dy="4"/>
<feGaussianBlur stdDeviation="2"/>
<feComposite in2="hardAlpha" operator="out"/>
<feColorMatrix type="matrix" values="0 0 0 0 0 0 0 0 0 0 0 0 0 0 0 0 0 0 0.25 0"/>
<feBlend mode="normal" in2="BackgroundImageFix" result="effect1_dropShadow_0_1"/>
<feBlend mode="normal" in="SourceGraphic" in2="effect1_dropShadow_0_1" result="shape"/>
</filter>
</defs>
</svg>
