<svg width="52" height="60" viewBox="0 0 52 60" fill="none" xmlns="http://www.w3.org/2000/svg">
<mask id="mask0_2354_149" style="mask-type:luminance" maskUnits="userSpaceOnUse" x="0" y="0" width="52" height="60">
<path d="M0 0H51.0992V59.5713H0V0Z" fill="white"/>
</mask>
<g mask="url(#mask0_2354_149)">
<path d="M0.697846 15.0564C0.591582 15.1231 0.495438 15.2022 0.408955 15.2933C0.322932 15.3844 0.248869 15.4846 0.188147 15.5941C0.126965 15.7041 0.0809631 15.8195 0.0487618 15.941C0.0170207 16.062 0.000919975 16.1857 0 16.3108V43.9348C0.000459988 44.0627 0.0170206 44.1888 0.0501419 44.3125C0.0832631 44.4363 0.131565 44.554 0.194587 44.6654C0.258069 44.7762 0.334892 44.8779 0.424596 44.969C0.514299 45.0605 0.614123 45.1392 0.724067 45.2045L24.6624 59.3486C24.7756 59.414 24.8957 59.4636 25.0222 59.4977C25.1482 59.5317 25.277 59.5483 25.4081 59.5483C25.5388 59.5483 25.6676 59.5317 25.7941 59.4977C25.9206 59.4636 26.0402 59.414 26.1538 59.3486L50.3171 45.1994C50.428 45.1346 50.5292 45.0568 50.6198 44.9653C50.7104 44.8742 50.7877 44.7725 50.8517 44.6612C50.9161 44.5499 50.9644 44.4317 50.9979 44.3075C51.0311 44.1833 51.0476 44.0568 51.0476 43.9284L51.0941 16.3025C51.0936 16.176 51.0771 16.0518 51.0449 15.9295C51.0127 15.8071 50.9653 15.6907 50.9036 15.5808C50.8415 15.4704 50.767 15.3696 50.6796 15.2781C50.5918 15.187 50.4942 15.1079 50.3866 15.0416L26.1819 0.232771C26.0655 0.160548 25.9417 0.105806 25.8102 0.068085C25.6786 0.0308235 25.5447 0.0119629 25.4081 0.0119629C25.2715 0.0119629 25.1372 0.0308235 25.0056 0.068085C24.874 0.105806 24.7503 0.160548 24.6344 0.232771L0.697846 15.0564ZM25.4164 3.22748L48.1445 17.1379L48.1031 43.0898L25.4164 56.3654L2.95285 43.093V17.1347L25.4164 3.22748Z" fill="#3A71DC"/>
</g>
<path d="M6.25906 41.9342C11.656 45.0306 18.024 48.6933 24.3823 52.3762C25.1694 52.8316 25.8323 52.8302 26.6079 52.3762C28.5234 51.2579 30.4408 50.1419 32.3595 49.0282C36.4426 46.6545 40.6647 44.2017 44.7873 41.7438C45.1954 41.5 45.5234 40.723 45.5712 40.1462C45.6476 39.2542 45.6342 38.3346 45.6246 37.4445C45.6163 36.8147 45.6075 36.1652 45.6246 35.5221C45.6443 34.9217 45.4585 34.6103 44.912 34.2888C42.8129 33.0734 40.7249 31.8442 38.6479 30.6013C36.9845 29.6168 35.3188 28.6342 33.6522 27.6544C31.3323 26.295 29.0005 24.9509 26.6507 23.597L23.3055 21.6677L23.5589 21.4225C24.6924 20.3268 25.6847 20.2026 26.9837 20.9782C32.578 24.3377 38.3084 27.6079 43.2366 30.4021C43.79 30.7154 44.6401 30.8465 44.9267 30.6624C45.361 30.3791 45.6825 29.5372 45.6991 28.9585C45.7451 27.3609 45.7386 25.7315 45.7336 24.1523C45.7336 22.6839 45.7239 21.1691 45.7603 19.6772C45.7869 18.6197 45.3941 17.9733 44.4046 17.448C43.1901 16.7998 41.9789 16.102 40.8073 15.4258L37.8641 13.7357C34.0363 11.5432 30.214 9.3448 26.3972 7.14086C25.7463 6.76594 25.2375 6.76088 24.6174 7.11924C22.5671 8.31666 20.5136 9.51363 18.4569 10.7092C14.4796 13.0295 10.367 15.4193 6.34186 17.8077C6.22364 17.8915 6.11461 17.9858 6.01525 18.0911C5.91589 18.1964 5.82802 18.3105 5.75166 18.4338C5.67484 18.5566 5.61136 18.6859 5.56075 18.8216C5.50969 18.9573 5.47335 19.0967 5.45035 19.2398C5.33995 20.8889 5.33995 22.5381 5.45035 24.1868C5.47703 24.3956 5.54281 24.5911 5.64862 24.7729C5.75396 24.955 5.89059 25.1091 6.05849 25.2361C8.23069 26.6152 10.4843 27.9391 12.4003 29.0482C16.0988 31.1974 19.8043 33.3425 23.5175 35.4839L27.7612 37.9353L27.4911 38.1805C26.5748 39.0205 25.5241 39.6539 24.0971 38.6447C23.15 38.0025 22.1715 37.4114 21.1627 36.8708C20.7565 36.6454 20.3521 36.4186 19.9515 36.185L17.3183 34.6586C14.2229 32.8567 11.0212 30.9941 7.8383 29.2203C7.4551 29.0225 7.04799 28.924 6.61695 28.9254C6.39661 28.9167 6.18592 28.9562 5.98397 29.045C5.6523 29.2106 5.37583 30.0525 5.36249 30.6542C5.32431 32.4772 5.33121 34.3168 5.33949 36.1054C5.33949 37.4974 5.34915 38.8899 5.33949 40.2837C5.32293 41.0759 5.59296 41.5515 6.25906 41.9342Z" fill="#3A71DC"/>
</svg>
