<svg width="197" height="60" viewBox="0 0 197 60" fill="none" xmlns="http://www.w3.org/2000/svg">
<mask id="mask0_0_1" style="mask-type:luminance" maskUnits="userSpaceOnUse" x="0" y="0" width="52" height="60">
<path d="M0 0H51.0992V59.5713H0V0Z" fill="white"/>
</mask>
<g mask="url(#mask0_0_1)">
<path d="M0.697846 15.0564C0.591582 15.1231 0.495438 15.2022 0.408955 15.2933C0.322932 15.3844 0.248869 15.4846 0.188147 15.5941C0.126965 15.7041 0.0809631 15.8195 0.0487618 15.941C0.0170207 16.062 0.000919975 16.1857 0 16.3108V43.9348C0.000459988 44.0627 0.0170206 44.1888 0.0501419 44.3125C0.0832631 44.4363 0.131565 44.554 0.194587 44.6654C0.258069 44.7762 0.334892 44.8779 0.424596 44.969C0.514299 45.0605 0.614123 45.1392 0.724067 45.2045L24.6624 59.3486C24.7756 59.414 24.8957 59.4636 25.0222 59.4977C25.1482 59.5317 25.277 59.5483 25.4081 59.5483C25.5388 59.5483 25.6676 59.5317 25.7941 59.4977C25.9206 59.4636 26.0402 59.414 26.1538 59.3486L50.3171 45.1994C50.428 45.1346 50.5292 45.0568 50.6198 44.9653C50.7104 44.8742 50.7877 44.7725 50.8517 44.6612C50.9161 44.5499 50.9644 44.4317 50.9979 44.3075C51.0311 44.1833 51.0476 44.0568 51.0476 43.9284L51.0941 16.3025C51.0936 16.176 51.0771 16.0518 51.0449 15.9295C51.0127 15.8071 50.9653 15.6907 50.9036 15.5808C50.8415 15.4704 50.767 15.3696 50.6796 15.2781C50.5918 15.187 50.4942 15.1079 50.3866 15.0416L26.1819 0.232771C26.0655 0.160548 25.9417 0.105806 25.8102 0.068085C25.6786 0.0308235 25.5447 0.0119629 25.4081 0.0119629C25.2715 0.0119629 25.1372 0.0308235 25.0056 0.068085C24.874 0.105806 24.7503 0.160548 24.6344 0.232771L0.697846 15.0564ZM25.4164 3.22748L48.1445 17.1379L48.1031 43.0898L25.4164 56.3654L2.95285 43.093V17.1347L25.4164 3.22748Z" fill="#3A71DC"/>
</g>
<path d="M6.25906 41.9342C11.656 45.0306 18.024 48.6933 24.3823 52.3762C25.1694 52.8316 25.8323 52.8302 26.6079 52.3762C28.5234 51.2579 30.4408 50.1419 32.3595 49.0282C36.4426 46.6545 40.6647 44.2017 44.7873 41.7438C45.1954 41.5 45.5234 40.723 45.5712 40.1462C45.6476 39.2542 45.6342 38.3346 45.6246 37.4445C45.6163 36.8147 45.6075 36.1652 45.6246 35.5221C45.6443 34.9217 45.4585 34.6103 44.912 34.2888C42.8129 33.0734 40.7249 31.8442 38.6479 30.6013C36.9845 29.6168 35.3188 28.6342 33.6522 27.6544C31.3323 26.295 29.0005 24.9509 26.6507 23.597L23.3055 21.6677L23.5589 21.4225C24.6924 20.3268 25.6847 20.2026 26.9837 20.9782C32.578 24.3377 38.3084 27.6079 43.2366 30.4021C43.79 30.7154 44.6401 30.8465 44.9267 30.6624C45.361 30.3791 45.6825 29.5372 45.6991 28.9585C45.7451 27.3609 45.7386 25.7315 45.7336 24.1523C45.7336 22.6839 45.7239 21.1691 45.7603 19.6772C45.7869 18.6197 45.3941 17.9733 44.4046 17.448C43.1901 16.7998 41.9789 16.102 40.8073 15.4258L37.8641 13.7357C34.0363 11.5432 30.214 9.3448 26.3972 7.14086C25.7463 6.76594 25.2375 6.76088 24.6174 7.11924C22.5671 8.31666 20.5136 9.51363 18.4569 10.7092C14.4796 13.0295 10.367 15.4193 6.34186 17.8077C6.22364 17.8915 6.11461 17.9858 6.01525 18.0911C5.91589 18.1964 5.82802 18.3105 5.75166 18.4338C5.67484 18.5566 5.61136 18.6859 5.56075 18.8216C5.50969 18.9573 5.47335 19.0967 5.45035 19.2398C5.33995 20.8889 5.33995 22.5381 5.45035 24.1868C5.47703 24.3956 5.54281 24.5911 5.64862 24.7729C5.75396 24.955 5.89059 25.1091 6.05849 25.2361C8.23069 26.6152 10.4843 27.9391 12.4003 29.0482C16.0988 31.1974 19.8043 33.3425 23.5175 35.4839L27.7612 37.9353L27.4911 38.1805C26.5748 39.0205 25.5241 39.6539 24.0971 38.6447C23.15 38.0025 22.1715 37.4114 21.1627 36.8708C20.7565 36.6454 20.3521 36.4186 19.9515 36.185L17.3183 34.6586C14.2229 32.8567 11.0212 30.9941 7.8383 29.2203C7.4551 29.0225 7.04799 28.924 6.61695 28.9254C6.39661 28.9167 6.18592 28.9562 5.98397 29.045C5.6523 29.2106 5.37583 30.0525 5.36249 30.6542C5.32431 32.4772 5.33121 34.3168 5.33949 36.1054C5.33949 37.4974 5.34915 38.8899 5.33949 40.2837C5.32293 41.0759 5.59296 41.5515 6.25906 41.9342Z" fill="#3A71DC"/>
<path d="M75.0726 15.1916C71.7655 15.1916 69.9521 16.9691 69.9521 20.3116V28.7032C69.9521 29.379 70.2723 29.8059 70.9122 30.0189L79.3393 32.7928V37.5217C79.3393 38.4818 78.8415 38.9441 77.9169 38.9441H76.2102C75.3215 38.9441 74.7878 38.4818 74.7878 37.5217V34.7837C74.7878 34.3927 74.6103 34.2147 74.2188 34.2147H70.5212C70.1656 34.2147 69.9521 34.3927 69.9521 34.7837V38.5172C69.9521 41.8597 71.7655 43.6377 75.0726 43.6377H79.055C82.3974 43.6377 84.1754 41.8597 84.1754 38.5172V30.3036C84.1754 29.6278 83.8552 29.2368 83.2508 28.988L74.7878 26.2145V21.3075C74.7878 20.3829 75.3215 19.8851 76.2102 19.8851H77.9169C78.8769 19.8851 79.3393 20.3829 79.3393 21.3075V24.081C79.3393 24.4366 79.5527 24.65 79.9083 24.65H83.6064C83.9974 24.65 84.1754 24.4366 84.1754 24.081V20.3116C84.1754 16.9691 82.3974 15.1916 79.055 15.1916H75.0726Z" fill="#3A71DC"/>
<path d="M105.332 43.6377C105.901 43.6377 106.114 43.2821 105.865 42.8197L99.4293 28.4543L105.474 16.0449C105.723 15.5472 105.509 15.1916 104.976 15.1916H101.243C100.851 15.1916 100.602 15.3692 100.425 15.7247L94.9487 26.9257V15.9028C94.9487 15.4405 94.6999 15.1916 94.2375 15.1916H90.8242C90.3619 15.1916 90.113 15.4405 90.113 15.9028V42.9265C90.113 43.3888 90.3619 43.6377 90.8242 43.6377H94.2375C94.6999 43.6377 94.9487 43.3888 94.9487 42.9265V35.068L96.2644 32.5434L100.745 43.1045C100.887 43.4601 101.136 43.6377 101.562 43.6377H105.332Z" fill="#3A71DC"/>
<path d="M125.742 15.7602C125.742 15.4046 125.6 15.1916 125.173 15.1916H112.088C111.768 15.1916 111.554 15.4046 111.554 15.7602V43.0686C111.554 43.4242 111.768 43.6377 112.088 43.6377H125.173C125.6 43.6377 125.742 43.4242 125.742 43.0686V39.5131C125.742 39.1217 125.6 38.9441 125.173 38.9441H116.283V31.7614H123.075C123.431 31.7614 123.644 31.548 123.644 31.1569V27.6364C123.644 27.2454 123.431 27.032 123.075 27.032H116.283V19.9206H125.173C125.6 19.9206 125.742 19.6717 125.742 19.3161V15.7602Z" fill="#3A71DC"/>
<path d="M131.68 43.0686C131.68 43.4242 131.894 43.6377 132.249 43.6377H135.947C136.338 43.6377 136.516 43.4242 136.516 43.0686V34.1079H140.783C144.125 34.1079 145.903 32.2946 145.903 28.988V20.3116C145.903 16.9691 144.125 15.1916 140.783 15.1916H132.249C131.894 15.1916 131.68 15.4046 131.68 15.7602V43.0686ZM136.516 29.4144V19.8851H139.645C140.605 19.8851 141.067 20.3829 141.067 21.3075V27.992C141.067 28.8812 140.605 29.4144 139.645 29.4144H136.516Z" fill="#3A71DC"/>
<path d="M156.962 15.1916C153.655 15.1916 151.842 16.9691 151.842 20.3116V28.7032C151.842 29.379 152.162 29.8059 152.802 30.0189L161.229 32.7928V37.5217C161.229 38.4818 160.731 38.9441 159.806 38.9441H158.1C157.211 38.9441 156.677 38.4818 156.677 37.5217V34.7837C156.677 34.3927 156.5 34.2147 156.108 34.2147H152.411C152.055 34.2147 151.842 34.3927 151.842 34.7837V38.5172C151.842 41.8597 153.655 43.6377 156.962 43.6377H160.944C164.287 43.6377 166.065 41.8597 166.065 38.5172V30.3036C166.065 29.6278 165.745 29.2368 165.14 28.988L156.677 26.2145V21.3075C156.677 20.3829 157.211 19.8851 158.1 19.8851H159.806C160.766 19.8851 161.229 20.3829 161.229 21.3075V24.081C161.229 24.4366 161.442 24.65 161.798 24.65H165.496C165.887 24.65 166.065 24.4366 166.065 24.081V20.3116C166.065 16.9691 164.287 15.1916 160.944 15.1916H156.962Z" fill="#3A71DC"/>
<path d="M172.572 15.1916C172.18 15.1916 172.003 15.4046 172.003 15.7602V43.0686C172.003 43.4242 172.18 43.6377 172.572 43.6377H176.269C176.625 43.6377 176.838 43.4242 176.838 43.0686V15.7602C176.838 15.4046 176.625 15.1916 176.269 15.1916H172.572Z" fill="#3A71DC"/>
<path d="M187.897 15.1916C184.59 15.1916 182.777 16.9691 182.777 20.3116V28.7032C182.777 29.379 183.097 29.8059 183.737 30.0189L192.164 32.7928V37.5217C192.164 38.4818 191.666 38.9441 190.742 38.9441H189.035C188.146 38.9441 187.613 38.4818 187.613 37.5217V34.7837C187.613 34.3927 187.435 34.2147 187.044 34.2147H183.346C182.99 34.2147 182.777 34.3927 182.777 34.7837V38.5172C182.777 41.8597 184.59 43.6377 187.897 43.6377H191.88C195.222 43.6377 197 41.8597 197 38.5172V30.3036C197 29.6278 196.68 29.2368 196.075 28.988L187.613 26.2145V21.3075C187.613 20.3829 188.146 19.8851 189.035 19.8851H190.742C191.702 19.8851 192.164 20.3829 192.164 21.3075V24.081C192.164 24.4366 192.377 24.65 192.733 24.65H196.431C196.822 24.65 197 24.4366 197 24.081V20.3116C197 16.9691 195.222 15.1916 191.88 15.1916H187.897Z" fill="#3A71DC"/>
<path d="M60.3247 47.7879V10.0688" stroke="#3A71DC" stroke-width="2.2964" stroke-linecap="square"/>
</svg>
