<svg width="189" height="480" viewBox="0 0 189 480" fill="none" xmlns="http://www.w3.org/2000/svg">
<path fill-rule="evenodd" clip-rule="evenodd" d="M283.39 11.9427C324.459 25.9843 318.779 99.6756 350.456 129.338C378.984 156.052 449.894 139.987 460.337 177.639C470.741 215.147 449.399 254.253 429.82 287.895C413.646 315.686 377.318 324.268 359.444 350.999C333.442 389.884 346.511 457.952 303.615 476.636C264.012 493.886 228.157 439.656 187.158 426.041C142.173 411.102 86.9827 424.775 51.8041 393.014C15.1467 359.918 -1.88395 306.655 0.293821 257.33C2.40697 209.468 38.6573 172.473 63.3541 131.416C87.672 90.99 102.455 41.0728 143.924 18.5563C185.664 -4.10784 238.442 -3.42488 283.39 11.9427Z" fill="#EF8FFF"/>
</svg>
