<svg width="126" height="165" viewBox="0 0 126 165" fill="none" xmlns="http://www.w3.org/2000/svg">
<path d="M107.688 151.274C99.3627 143.622 99.1073 135.167 98.8812 128.932C98.6598 123.403 98.4724 120.802 95.1849 117.756C91.8973 114.709 89.2667 114.699 83.7385 114.92C77.6021 115.132 69.1615 115.486 60.8362 107.835C52.511 100.183 52.2556 91.728 52.0294 85.4927C51.8081 79.9645 51.6207 77.3636 48.3331 74.3169C45.0456 71.2703 42.415 71.2599 36.8868 71.4813C30.7504 71.6926 22.3098 72.0469 13.9845 64.3958C5.65925 56.7446 5.40386 48.2891 5.1777 42.0538C4.95634 36.5256 4.76899 33.9247 1.48141 30.8781L12.3622 19.1367C20.6874 26.7879 20.9428 35.2433 21.1689 41.4786C21.3903 47.0068 21.5777 49.6078 24.8652 52.6544C28.1528 55.701 30.7834 55.7114 36.3116 55.4901C42.448 55.2787 50.8886 54.9244 59.2139 62.5756C67.5391 70.2267 67.7945 78.6822 68.0207 84.9175C68.242 90.4457 68.4294 93.0466 71.717 96.0932C75.0045 99.1399 77.6351 99.1503 83.1633 98.9289C89.2997 98.7176 97.7403 98.3633 106.066 106.015C114.391 113.666 114.646 122.121 114.872 128.356C115.094 133.885 115.281 136.486 118.569 139.532L107.688 151.274Z" fill="#EF8FFF"/>
<path d="M113.422 145.257C105.074 137.597 104.82 129.13 104.594 122.886C104.374 117.35 104.186 114.745 100.89 111.695C97.5932 108.645 94.9548 108.635 89.4101 108.858C83.2554 109.071 74.7896 109.428 66.4414 101.768C58.0932 94.1082 57.8391 85.6409 57.6138 79.3968C57.3931 73.8608 57.2058 71.2562 53.9091 68.206C50.6125 65.1559 47.9741 65.1461 42.4294 65.3691C36.2747 65.5822 27.8089 65.939 19.4607 58.279C11.1125 50.619 10.8584 42.1516 10.6331 35.9075C10.4124 30.3715 10.2251 27.767 6.92847 24.7168L17.8444 12.9562C26.1926 20.6162 26.4467 29.0836 26.672 35.3277C26.8927 40.8636 27.08 43.4683 30.3766 46.5184C33.6733 49.5685 36.3116 49.5784 41.8563 49.3554C48.011 49.1423 56.4768 48.7854 64.825 56.4455C73.1732 64.1055 73.4273 72.5729 73.6527 78.8169C73.8734 84.3529 74.0607 86.9575 77.3573 90.0076C80.6539 93.0578 83.2923 93.0676 88.837 92.8446C94.9917 92.6315 103.458 92.2747 111.806 99.9347C120.154 107.595 120.408 116.062 120.633 122.306C120.854 127.842 121.041 130.447 124.338 133.497L113.422 145.257Z" stroke="black" stroke-width="2" stroke-miterlimit="10"/>
</svg>
